<svg width="126" height="126" viewBox="0 0 126 126" fill="none" xmlns="http://www.w3.org/2000/svg">
<path d="M0.974976 63.3037C0.974976 28.7859 28.9572 0.803711 63.475 0.803711C97.9928 0.803711 125.975 28.7859 125.975 63.3037V125.804H0.974976V63.3037Z" fill="#F3AFA8"/>
<path d="M33.4029 99.6506L40.0544 99.6506L40.0544 92.7674L33.4029 92.7674L33.4029 99.6506ZM88.7792 43.1882C88.7792 42.7226 88.4145 42.3452 87.9646 42.3452L80.6329 42.3452C80.183 42.3452 79.8183 42.7226 79.8183 43.1882C79.8183 43.6538 80.183 44.0312 80.6329 44.0312L87.15 44.0312L87.15 50.7753C87.15 51.2409 87.5147 51.6183 87.9646 51.6183C88.4145 51.6183 88.7792 51.2409 88.7792 50.7753L88.7792 43.1882ZM37.3047 96.8051L88.5406 43.7843L87.3886 42.5921L36.1526 95.6129L37.3047 96.8051Z" fill="#2D2D2D"/>
</svg>
