<svg width="39" height="48" viewBox="0 0 39 48" fill="none" xmlns="http://www.w3.org/2000/svg">
<path fill-rule="evenodd" clip-rule="evenodd" d="M28.4511 0.587338C26.4744 0.777837 24.1537 1.92278 22.5255 3.51083C20.7836 5.20976 19.6065 7.57143 19.4001 9.78143C19.3684 10.1208 19.383 10.9284 19.4249 11.154L19.4532 11.3064L19.6494 11.3343C19.9357 11.3749 20.6402 11.3505 21.0022 11.2874C22.3833 11.0466 23.8217 10.3668 25.1072 9.34742C25.4959 9.03919 26.2146 8.31179 26.5684 7.8685C27.0834 7.22329 27.5207 6.53379 27.8737 5.81028C28.3879 4.75654 28.6925 3.7597 28.8591 2.58573C28.9072 2.24645 28.9294 1.18928 28.8941 0.916287C28.8454 0.539358 28.8546 0.561381 28.7466 0.564903C28.6945 0.566595 28.5616 0.576704 28.4511 0.587338ZM27.5656 11.8979C27.0334 11.9293 26.3115 12.0457 25.6789 12.202C24.8461 12.4078 24.2212 12.6202 22.7517 13.1969C21.5594 13.6647 21.1896 13.7951 20.7099 13.9165C20.1014 14.0706 19.5676 14.0667 18.9097 13.9036C18.4437 13.788 18.1033 13.667 16.8788 13.1815C15.7004 12.7142 15.2708 12.5587 14.7132 12.3974C13.3554 12.0047 12.2719 11.9173 10.9055 12.0903C9.43216 12.2769 8.00666 12.7652 6.72041 13.5238C4.21974 14.9988 2.35154 17.381 1.34565 20.3773C0.602697 22.5904 0.342583 25.0991 0.570222 27.8561C0.778674 30.3805 1.3958 33.0601 2.35308 35.5973C2.96755 37.2259 3.79854 38.9415 4.62386 40.2855C5.37843 41.5142 6.89927 43.5771 7.84413 44.6535C9.60165 46.6557 11.2317 47.5084 13.053 47.3785C14.012 47.31 14.62 47.1391 16.0962 46.5232C17.0484 46.1258 17.4462 45.9772 17.9387 45.8348C19.428 45.4041 21.1108 45.3662 22.5687 45.7306C23.1789 45.8831 23.5301 46.0101 24.5698 46.4543C25.8594 47.0051 26.3533 47.1608 27.1654 47.2723C27.526 47.3219 28.299 47.3411 28.6062 47.3082C30.0254 47.1561 31.3204 46.4515 32.6088 45.1304C33.3951 44.3242 34.1905 43.3107 35.3342 41.6576C36.595 39.8352 37.7178 37.6106 38.4158 35.5516C38.628 34.9258 38.6293 34.9199 38.5613 34.8988C38.3311 34.8276 37.4502 34.3442 36.9877 34.0352C34.3447 32.2697 32.7491 29.7244 32.4042 26.7241C32.1174 24.2285 32.6678 21.8549 34.0032 19.829C34.7773 18.6547 35.8959 17.5349 37.0963 16.7326C37.2504 16.6296 37.3765 16.5343 37.3765 16.5207C37.3765 16.482 37.0625 16.0619 36.79 15.7358C34.8628 13.4305 32.1391 12.1058 28.9149 11.9057C28.5677 11.8841 27.8676 11.8801 27.5656 11.8979Z" fill="#2D2D2D"/>
</svg>
