<svg width="66" height="44" viewBox="0 0 66 44" fill="none" xmlns="http://www.w3.org/2000/svg">
<path fill-rule="evenodd" clip-rule="evenodd" d="M34.0717 2.72848C31.4657 4.2251 29.3082 5.45913 29.2772 5.47076C29.2463 5.48238 32.2272 10.7151 35.9015 17.099L42.582 28.7062H49.0018H55.4216L55.2663 28.4301C54.9061 27.7899 38.9521 0.216313 38.8843 0.116681C38.8183 0.0197124 38.2748 0.314711 34.0717 2.72848ZM23.0659 12.8348C20.4403 14.3481 18.3001 15.6174 18.3098 15.6556C18.3195 15.6937 20.0219 18.6531 22.0929 22.2318L25.8583 28.7386L25.8584 30.0863L25.8587 31.434H27.2226H28.5866V30.0705V28.7069L33.5889 28.6903L38.5913 28.6737L33.2257 19.386C30.2747 14.2777 27.8556 10.0949 27.8499 10.0909C27.8443 10.0868 25.6915 11.3216 23.0659 12.8348ZM11.8338 22.6666C9.24616 24.1656 7.10706 25.4144 7.08024 25.4416C7.05342 25.4689 7.44499 26.2145 7.95049 27.0987L8.86952 28.7062H15.2603C20.3462 28.7062 21.6446 28.6896 21.6197 28.625C21.5429 28.4252 16.6393 19.9718 16.5918 19.9573C16.5625 19.9484 14.4214 21.1676 11.8338 22.6666ZM21.7669 31.0135V33.3209L21.296 33.0633C19.6367 32.1557 17.6447 32.1311 15.889 32.9967C14.7428 33.5618 13.9153 34.3787 13.3598 35.4933C12.8922 36.4318 12.7732 36.9509 12.7793 38.0264C12.7854 39.1126 12.9111 39.6691 13.3518 40.5594C14.3191 42.5138 16.3317 43.7734 18.487 43.7734C19.4162 43.7734 20.325 43.5446 21.2295 43.0831L21.7669 42.8089V43.1617V43.5146H23.1308H24.4948V36.1104V28.7062H23.1308H21.7669V31.0135ZM38.6537 31.0037V33.3013L38.1828 33.0502C36.1778 31.981 33.6975 32.1785 31.8948 33.551C30.8349 34.358 30.0594 35.5833 29.7828 36.8882C29.6758 37.3929 29.6637 38.467 29.759 39.0049C30.3012 42.066 33.1227 44.1264 36.2084 43.7146C36.8608 43.6275 37.8829 43.2846 38.3435 42.9983L38.6537 42.8055V43.16V43.5146H40.0176H41.3815V36.1104V28.7062H40.0176H38.6537V31.0037ZM5.03259 32.4075C2.84153 32.717 1.00964 34.2405 0.346125 36.3052C-0.502889 38.9471 0.723544 41.8784 3.20161 43.1301C4.88646 43.9812 6.7603 43.9827 8.46859 43.1343L9.10185 42.8199V43.1672V43.5146H10.4333H11.7648V37.9939V32.4732H10.4333H9.10185V32.8901V33.307L8.48522 32.993C8.11488 32.8044 7.64036 32.6255 7.29698 32.5448C6.63294 32.389 5.60538 32.3266 5.03259 32.4075ZM47.2083 32.4098C45.7885 32.6341 44.3738 33.4395 43.5308 34.5034C43.0952 35.0531 42.7252 35.765 42.5101 36.4676C42.3491 36.9933 42.3313 37.1468 42.3334 37.9939C42.3361 39.0837 42.4531 39.6332 42.8659 40.4944C43.6144 42.0559 44.9709 43.1616 46.7074 43.6253C47.3053 43.7849 48.7815 43.7816 49.3921 43.6191C49.9535 43.4697 50.4987 43.2487 50.9227 42.9987L51.2538 42.8035V43.159V43.5146H52.6177H53.9817V37.9939V32.4732H52.6177H51.2538V32.9033C51.2538 33.2395 51.2361 33.319 51.1726 33.2671C50.9437 33.0801 49.9867 32.6658 49.5061 32.5458C48.8789 32.389 47.7589 32.3227 47.2083 32.4098ZM59.2101 32.3859C57.2337 32.6206 55.8983 33.5397 55.4646 34.9638C55.3526 35.3314 55.3343 35.5253 55.3591 36.0824C55.3866 36.6997 55.4096 36.7978 55.6327 37.2494C56.225 38.4477 57.0854 38.876 59.8012 39.3243C61.1317 39.544 61.5806 39.6888 61.8376 39.9814C62.2466 40.4472 61.9985 41.1316 61.2884 41.4966C60.9951 41.6473 60.8914 41.6635 60.2168 41.6635C59.6326 41.6635 59.3943 41.6355 59.1232 41.535C58.4915 41.3008 58.0659 40.8113 57.9695 40.2081L57.9269 39.9424H56.5064H55.0858V40.156C55.0858 40.5018 55.2674 41.0997 55.5162 41.5732C56.2996 43.0639 58.1927 43.8781 60.5791 43.7504C63.2523 43.6076 64.8191 42.4032 65.0001 40.3521C65.1522 38.6304 64.0168 37.376 61.8946 36.9209C61.4898 36.834 60.7494 36.6905 60.2492 36.6019C59.1138 36.4008 58.718 36.2742 58.4269 36.019C58.1379 35.7657 58.0743 35.4533 58.2404 35.1033C58.3301 34.9143 58.4389 34.8198 58.7183 34.6888C59.0525 34.5321 59.1473 34.5191 59.957 34.5191C60.7959 34.5191 60.8469 34.5268 61.1366 34.6971C61.4983 34.9098 61.7055 35.2203 61.7655 35.6397L61.8095 35.948L63.189 35.9655C64.7646 35.9855 64.6361 36.0487 64.4683 35.337C64.2678 34.4862 63.5869 33.5593 62.8204 33.0937C61.9224 32.5482 60.3838 32.2465 59.2101 32.3859ZM25.8587 37.9939V43.5146H27.2226H28.5866V37.9939V32.4732H27.2226H25.8587V37.9939ZM6.70315 34.981C7.95387 35.3521 8.85147 36.3634 9.04716 37.622C9.19732 38.5879 8.86004 39.5277 8.10208 40.2555C6.62332 41.6755 4.30698 41.3987 3.18752 39.6682C2.84439 39.1378 2.71462 38.6021 2.74742 37.8515C2.77093 37.3153 2.8025 37.1827 3.01144 36.7426C3.68438 35.3257 5.28713 34.5609 6.70315 34.981ZM19.3682 34.9799C19.9528 35.1516 20.4469 35.4543 20.8552 35.8908C22.0748 37.1946 22.0377 39.0355 20.7672 40.2555C19.5314 41.4422 17.6696 41.4732 16.4165 40.328C15.8167 39.7798 15.5049 39.1858 15.4018 38.3947C15.2077 36.905 16.2544 35.3805 17.7469 34.9791C18.2169 34.8527 18.9364 34.8531 19.3682 34.9799ZM36.6477 35.0984C37.8541 35.588 38.6537 36.7681 38.6537 38.0588C38.6537 39.5792 37.5469 40.858 36.0019 41.1229C34.9895 41.2965 34.0101 40.9719 33.2685 40.2169C32.5737 39.5095 32.3208 38.846 32.3645 37.8453C32.3875 37.3187 32.4201 37.1811 32.6222 36.7576C33.0251 35.9131 33.6748 35.3306 34.5604 35.02C35.151 34.8128 36.0249 34.8457 36.6477 35.0984ZM48.92 34.981C49.4984 35.1526 49.8959 35.3896 50.3108 35.8102C51.326 36.8394 51.5383 38.2204 50.8809 39.5184C50.6382 39.9976 49.9834 40.6198 49.4677 40.8612C47.367 41.8442 44.9492 40.2978 44.9545 37.9745C44.9575 36.6494 46.0029 35.3403 47.3569 34.9659C47.7716 34.8513 48.5066 34.8583 48.92 34.981Z" fill="#2D2D2D"/>
</svg>
