<svg width="108" height="28" viewBox="0 0 108 28" fill="none" xmlns="http://www.w3.org/2000/svg">
<path fill-rule="evenodd" clip-rule="evenodd" d="M3.74424 0.527613C2.34325 0.726563 1.20228 1.78509 0.897708 3.16848C0.835629 3.45047 0.830357 4.47889 0.841072 14.2368L0.852892 24.9944L0.94954 25.3056C1.31321 26.477 2.1426 27.2938 3.3403 27.6604L3.6592 27.7579L14.1403 27.7703C21.0834 27.7786 24.76 27.7681 25.0318 27.7392C26.3939 27.5947 27.4733 26.7371 27.9249 25.4408L28.0656 25.0369V14.1731C28.0656 1.91674 28.1009 3.14696 27.7261 2.37382C27.3028 1.50076 26.5277 0.867049 25.5356 0.582932C25.2697 0.506779 24.8579 0.503547 14.6293 0.497594C8.78284 0.494193 3.88455 0.507714 3.74424 0.527613ZM14.9172 4.23236C15.014 4.28594 15.1515 4.41269 15.2227 4.5141L15.3521 4.69847L15.3638 11.5511C15.3769 19.2106 15.4 18.6266 15.0727 18.9068C14.6847 19.2389 14.1705 19.2221 13.8134 18.8655C13.7066 18.7588 13.6171 18.6199 13.5897 18.518C13.5578 18.3996 13.5474 16.2894 13.5552 11.5273L13.5663 4.7062L13.6832 4.52962C13.9562 4.11701 14.4801 3.99081 14.9172 4.23236ZM10.2332 4.62903C10.4624 4.7099 10.64 4.87216 10.7432 5.09509C10.8187 5.2582 10.822 5.52386 10.8229 11.5704L10.8238 17.8757L10.7351 18.0494C10.6275 18.2605 10.4683 18.4158 10.2757 18.4975C10.1033 18.5707 9.74642 18.5773 9.56945 18.5105C9.39206 18.4435 9.16998 18.2232 9.07622 18.0211C9.00045 17.8578 8.99731 17.5988 8.99731 11.5581C8.99731 5.52246 9.00054 5.2582 9.07605 5.09509C9.27764 4.65969 9.76441 4.46363 10.2332 4.62903ZM19.3324 4.62903C19.5616 4.7099 19.7392 4.87216 19.8424 5.09509C19.9179 5.2582 19.9212 5.52386 19.9221 11.5704L19.923 17.8757L19.8344 18.0494C19.7267 18.2605 19.5675 18.4158 19.375 18.4975C19.2026 18.5707 18.8457 18.5773 18.6687 18.5105C18.4913 18.4435 18.2692 18.2232 18.1755 18.0211C18.0997 17.8578 18.0965 17.5988 18.0965 11.5581C18.0965 5.52246 18.0998 5.2582 18.1753 5.09509C18.3769 4.65969 18.8636 4.46363 19.3324 4.62903ZM5.74305 6.47124C5.95603 6.56802 6.17089 6.80855 6.23173 7.01839C6.26435 7.13085 6.27442 8.46555 6.26554 11.4974L6.25291 15.8163L6.13691 15.9916C5.86564 16.4015 5.30123 16.5292 4.88462 16.275C4.73197 16.1817 4.64987 16.091 4.56275 15.9192L4.44582 15.6885V11.4003C4.44582 6.70774 4.43314 6.95023 4.69256 6.6736C4.94525 6.4041 5.4017 6.31617 5.74305 6.47124ZM23.9415 6.47124C24.1545 6.56802 24.3694 6.80855 24.4302 7.01839C24.4628 7.13085 24.4729 8.46555 24.464 11.4974L24.4514 15.8163L24.3354 15.9916C24.0641 16.4015 23.4997 16.5292 23.0831 16.275C22.9305 16.1817 22.8483 16.091 22.7612 15.9192L22.6443 15.6885V11.4003C22.6443 6.70774 22.6316 6.95023 22.891 6.6736C23.1437 6.4041 23.6002 6.31617 23.9415 6.47124ZM81.0878 9.18367C79.7006 9.40213 78.5249 10.394 78.0969 11.7069C77.8461 12.4763 77.7468 13.634 77.8264 14.8606C77.8836 15.7408 77.976 16.2465 78.1725 16.7544C78.5916 17.8375 79.565 18.7066 80.6838 18.9966C81.0661 19.0957 81.9706 19.1322 82.3526 19.0639C83.1801 18.916 83.8578 18.5652 84.449 17.9786C84.8268 17.6038 85.0904 17.2011 85.1647 16.885C85.2038 16.7187 85.1185 16.3874 84.9948 16.2252C84.8219 15.9985 84.5902 15.9047 84.2509 15.9239C83.8804 15.9448 83.7024 16.0773 83.4857 16.4937C83.1526 17.1338 82.7317 17.437 82.0365 17.5375C81.5737 17.6044 81.2549 17.5528 80.8267 17.3416C80.1173 16.9919 79.7516 16.3866 79.6212 15.3467C79.5564 14.8294 79.5679 13.246 79.6401 12.7674C79.7866 11.7956 80.1337 11.2733 80.8813 10.9C81.6264 10.5279 82.62 10.6887 83.1482 11.2666C83.2686 11.3984 83.4161 11.604 83.4758 11.7235C83.6055 11.9826 83.7216 12.1168 83.8941 12.2067C84.4018 12.4713 84.9785 12.2457 85.1305 11.7229C85.1905 11.5166 85.1906 11.4724 85.1315 11.2691C84.9493 10.6426 84.2698 9.93363 83.4783 9.54432C82.9056 9.26263 82.5875 9.1906 81.8531 9.17614C81.5023 9.16921 81.1579 9.17261 81.0878 9.18367ZM90.3146 9.21696C89.8351 9.31191 89.3525 9.50053 88.9774 9.73957C88.025 10.3465 87.473 11.2415 87.2439 12.5507C87.1499 13.0879 87.1387 15.0646 87.2264 15.64C87.4636 17.195 88.2481 18.2633 89.5514 18.8059C90.091 19.0305 90.6047 19.1166 91.2713 19.0941C92.4229 19.0551 93.2493 18.7087 93.9933 17.9532C94.867 17.0658 95.1911 15.8842 95.1234 13.8329C95.0782 12.4618 94.9208 11.7135 94.5351 11.0363C94.0614 10.2046 93.2178 9.55682 92.2492 9.281C91.8355 9.16317 90.7651 9.12775 90.3146 9.21696ZM42.1821 9.38355C41.9253 9.50371 41.7299 9.69663 41.5992 9.95931L41.5018 10.1549L41.4901 14.0868C41.4823 16.7286 41.4932 18.0896 41.5233 18.235C41.6784 18.9818 42.641 19.1833 43.0745 18.5596L43.2026 18.3753L43.2141 15.36C43.2204 13.7016 43.2395 12.3452 43.2566 12.3459C43.2737 12.3465 44.1559 13.7337 45.217 15.4284C46.4554 17.4063 47.2047 18.5626 47.3093 18.6571C47.5196 18.8471 47.8741 18.9534 48.1987 18.924C48.6272 18.8851 48.9743 18.6366 49.1614 18.2346L49.2608 18.0211L49.2613 13.991C49.2616 10.449 49.2537 9.9418 49.1959 9.80339C48.9269 9.15964 48.0359 9.09191 47.6672 9.68714L47.5396 9.89307L47.5184 12.836L47.4971 15.779L45.605 12.7764C44.5643 11.125 43.635 9.69514 43.5399 9.599C43.2227 9.27827 42.6138 9.18167 42.1821 9.38355ZM60.1663 9.36323C59.9338 9.46881 59.781 9.6624 59.7253 9.92194C59.6695 10.1826 59.6631 18.0044 59.7185 18.2915C59.7581 18.4964 59.8577 18.651 60.0356 18.7838C60.151 18.8701 60.2002 18.8717 63.0093 18.8834C65.504 18.8938 65.8877 18.887 66.0391 18.8295C66.3751 18.702 66.5971 18.3472 66.5476 18.0167C66.4992 17.6945 66.2599 17.4327 65.9474 17.3602C65.8557 17.339 64.7997 17.3211 63.6009 17.3206L61.4212 17.3195L61.4324 15.9908L61.4436 14.662L63.442 14.6408C65.4089 14.6199 65.4429 14.618 65.5909 14.5259C65.9822 14.2826 66.0535 13.6664 65.7265 13.3532C65.4736 13.111 65.4646 13.1101 63.3584 13.1101H61.4224V11.9833V10.8565L63.6653 10.8556C65.7549 10.8547 65.9198 10.8493 66.0783 10.7762C66.2841 10.6812 66.4137 10.5466 66.5014 10.3364C66.5787 10.1514 66.5819 10.0819 66.5229 9.86926C66.4641 9.65776 66.2897 9.45847 66.08 9.36323C65.9189 9.29001 65.7344 9.28516 63.1231 9.28516C60.5119 9.28516 60.3274 9.29001 60.1663 9.36323ZM98.3245 9.33946C97.8815 9.46447 97.4926 9.89294 97.3949 10.364C97.364 10.5125 97.3532 11.8267 97.3611 14.4508C97.3729 18.3129 97.373 18.319 97.464 18.4888C97.5759 18.6976 97.6697 18.7851 97.8726 18.8699C98.3034 19.0499 98.7947 18.8455 98.9929 18.4038C99.0139 18.357 99.0407 16.894 99.0524 15.1527L99.0736 11.9867L100.176 15.0252C100.782 16.6963 101.321 18.1497 101.373 18.255C101.612 18.7366 102.139 18.9393 102.603 18.7284C102.951 18.5703 102.949 18.5762 104.172 15.257C104.801 13.55 105.332 12.1352 105.352 12.113C105.372 12.0908 105.388 13.4767 105.388 15.1929C105.388 18.2857 105.389 18.3148 105.478 18.4995C105.604 18.7602 105.826 18.8971 106.163 18.9225C106.388 18.9395 106.46 18.9266 106.621 18.84C106.726 18.7836 106.87 18.6559 106.94 18.5564L107.067 18.3753L107.08 14.4564C107.091 10.9714 107.085 10.5094 107.025 10.2825C106.753 9.26326 105.507 8.9527 104.802 9.7283C104.607 9.94337 104.57 10.0333 103.478 12.9648C102.86 14.6233 102.334 16.0226 102.308 16.0744C102.268 16.1558 102.119 15.7821 101.225 13.3532C100.655 11.8046 100.129 10.3871 100.058 10.2032C99.8295 9.61486 99.4397 9.32534 98.8398 9.29839C98.6601 9.29031 98.4352 9.30825 98.3245 9.33946ZM37.4826 9.42148C37.372 9.47739 37.2403 9.59373 37.1654 9.70152L37.0372 9.88588V14.1236V18.3613L37.1648 18.5495C37.4664 18.9946 38.0848 19.0602 38.4761 18.6885C38.7558 18.4228 38.7367 18.7291 38.7513 14.2794C38.761 11.352 38.7512 10.1778 38.7158 10.0141C38.5957 9.45877 37.9871 9.16632 37.4826 9.42148ZM51.3555 9.36195C51.1956 9.408 50.9575 9.62494 50.8903 9.78583C50.7304 10.1684 50.8847 10.6401 51.2301 10.8247C51.4006 10.9158 51.4623 10.9209 52.5463 10.934L53.6837 10.9477V14.672V18.3963L53.7919 18.5808C53.9411 18.8355 54.1747 18.9531 54.5341 18.9545C54.8638 18.9558 55.0944 18.8449 55.2577 18.6066L55.3633 18.4526L55.3746 14.7001L55.3859 10.9476L56.5439 10.934C57.8151 10.919 57.8525 10.912 58.0758 10.6465C58.411 10.2482 58.2936 9.63557 57.8401 9.416C57.6552 9.32649 57.6302 9.32585 54.5526 9.33006C52.847 9.3324 51.4083 9.34673 51.3555 9.36195ZM69.1634 9.41957C69.0595 9.47323 68.916 9.59067 68.8445 9.68055L68.7145 9.84391L68.7033 14.0925C68.6924 18.2079 68.6946 18.346 68.7735 18.5C68.8831 18.7137 69.0201 18.8343 69.2419 18.9126C69.5678 19.0276 69.8743 18.9731 70.121 18.7566C70.4181 18.4957 70.413 18.5269 70.4365 16.8306L70.4578 15.2998H71.536H72.6142L73.3533 16.9581C74.1414 18.726 74.1772 18.7855 74.5142 18.8865C75.1056 19.0637 75.624 18.6928 75.624 18.0925C75.624 17.9003 75.5425 17.6887 74.9914 16.4499L74.3589 15.0278L74.7169 14.8269C75.3575 14.4673 75.8211 13.8568 76.0078 13.1267C76.1099 12.7275 76.119 12.0361 76.0279 11.6006C75.8645 10.8194 75.2782 10.0656 74.561 9.71474C73.8321 9.35813 73.7956 9.35375 71.4358 9.33687L69.3523 9.32198L69.1634 9.41957ZM91.6752 10.7869C92.2668 10.9453 92.81 11.3776 93.0452 11.877C93.3175 12.4554 93.423 13.2768 93.3837 14.5132C93.3542 15.4419 93.2643 15.9331 93.0381 16.4036C92.4218 17.6848 90.7185 17.9615 89.6767 16.9497C89.3537 16.636 89.1188 16.1152 89.0187 15.4912C88.9427 15.0169 88.9169 13.8102 88.971 13.2589C89.0362 12.5948 89.1141 12.2695 89.3013 11.8804C89.5544 11.3541 90.0421 10.955 90.6335 10.7899C90.8901 10.7183 91.4134 10.7168 91.6752 10.7869ZM73.2654 10.8799C73.9196 11.0503 74.3418 11.5575 74.3817 12.2208C74.411 12.71 74.3187 12.9769 74.0158 13.2779C73.821 13.4716 73.7187 13.536 73.4865 13.6116C73.2141 13.7003 73.1251 13.7054 71.8388 13.7054H70.4791V12.2597V10.814H71.7457C72.7526 10.814 73.0643 10.8275 73.2654 10.8799ZM5.53407 19.615C5.58305 19.6153 5.886 19.7862 6.20737 19.9948C7.93499 21.116 9.84889 21.8131 12.0994 22.1408C13.5068 22.3457 15.4705 22.3467 16.8616 22.1432C19.3447 21.7801 21.3499 21.0009 23.0523 19.7379C23.4501 19.4428 24.048 19.573 24.3207 20.0141C24.495 20.296 24.52 20.6389 24.3864 20.9149C24.1125 21.4807 22.1494 22.5822 20.2319 23.2459C18.3363 23.9021 15.6325 24.2548 13.4844 24.1261C10.4108 23.9419 7.80212 23.1765 5.63748 21.8237C4.64124 21.2012 4.44582 20.989 4.44582 20.5301C4.44582 20.2601 4.51542 20.0712 4.67683 19.903C4.85758 19.7147 5.19765 19.5621 5.35999 19.5965C5.40676 19.6063 5.48508 19.6147 5.53407 19.615Z" fill="#2D2D2D"/>
</svg>
