<svg width="114" height="18" viewBox="0 0 114 18" fill="none" xmlns="http://www.w3.org/2000/svg">
<path fill-rule="evenodd" clip-rule="evenodd" d="M5.39319 0.391038C3.40515 0.546521 1.97649 1.21796 1.22191 2.35139C0.760752 3.04412 0.562005 3.74865 0.532271 4.79615C0.515411 5.39001 0.544938 5.75132 0.645976 6.18777C0.896343 7.26919 1.62035 8.15103 3.01946 9.07873C3.51853 9.40961 3.86943 9.61621 5.02903 10.2618C6.48145 11.0705 6.92016 11.3627 7.39338 11.8365C7.74009 12.1837 7.89296 12.4284 7.97166 12.7622C8.06518 13.159 8.00482 13.7118 7.82712 14.086C7.58003 14.6063 7.11741 14.8508 6.38196 14.8499C5.53232 14.8488 4.97155 14.4728 4.79207 13.7837C4.75603 13.6454 4.74655 13.4211 4.74655 12.7083V11.8076H2.57591H0.405273V12.5607C0.405273 13.3721 0.436227 13.8049 0.525283 14.2387C0.88201 15.9762 2.11122 17.1091 4.12791 17.559C5.57442 17.8818 7.44072 17.8462 8.79454 17.4701C9.64418 17.2341 10.3243 16.8667 10.852 16.3588C11.5397 15.6969 11.8735 14.9793 12.0217 13.8445C12.0939 13.2918 12.0935 12.1241 12.021 11.659C11.8245 10.3981 11.0971 9.45201 9.54439 8.43791C9.03037 8.10218 8.57254 7.83971 7.4078 7.21296C5.97278 6.44081 5.45117 6.10103 5.07235 5.69176C4.76989 5.36495 4.65734 5.06534 4.65734 4.58688C4.65734 3.66834 5.21059 3.12408 6.14289 3.12553C6.77808 3.12652 7.24126 3.36157 7.47607 3.80212C7.63605 4.10226 7.66055 4.25599 7.66055 4.96002V5.59307H9.68251H11.7045L11.7042 4.97608C11.7037 3.77408 11.6014 3.18031 11.2857 2.54853C10.6937 1.36357 9.45234 0.6599 7.55458 0.433559C7.08566 0.377628 5.87025 0.353721 5.39319 0.391038ZM58.0015 0.479618C55.8232 0.649196 54.3416 1.41754 53.6509 2.73574C53.506 3.01233 53.3589 3.40578 53.291 3.69903C53.1006 4.52048 53.1053 5.58882 53.3028 6.3417C53.5681 7.35322 54.3442 8.25638 55.7119 9.14527C56.1207 9.41098 56.5504 9.66257 57.4389 10.1565C57.871 10.3967 58.4266 10.7142 58.6737 10.862C59.6866 11.4682 60.2628 12.0069 60.4727 12.544C60.5654 12.7814 60.5857 13.3172 60.5143 13.6432C60.3816 14.2482 60.0619 14.5904 59.4882 14.7412C59.2298 14.8091 58.6785 14.8099 58.4259 14.7427C58.0007 14.6296 57.6459 14.3631 57.4867 14.0372C57.3429 13.7429 57.3186 13.5387 57.3181 12.6179L57.3176 11.7779H55.1734H53.0292L53.0445 12.7517C53.0572 13.5584 53.0702 13.7816 53.1204 14.0526C53.4427 15.7913 54.5784 16.9279 56.4809 17.416C57.9854 17.8021 59.974 17.7823 61.4078 17.367C62.2633 17.1193 62.8764 16.7751 63.4173 16.2393C64.2687 15.3958 64.586 14.4216 64.5846 12.6551C64.584 11.9076 64.5516 11.6023 64.4223 11.1269C64.1702 10.1998 63.3428 9.26029 62.0305 8.41103C61.593 8.12793 61.0737 7.83186 60.0155 7.26229C58.5309 6.46335 58.0235 6.13317 57.6446 5.71962C57.2783 5.31984 57.1539 4.83436 57.2734 4.27038C57.4222 3.56787 57.9352 3.18578 58.73 3.18551C59.326 3.18533 59.7989 3.43201 60.0343 3.86599C60.1846 4.14291 60.2076 4.27776 60.2234 4.97608L60.2381 5.62281H62.2271H64.216V4.94007C64.216 4.56458 64.2012 4.11966 64.1831 3.95139C63.9693 1.9665 62.607 0.819487 60.1126 0.524191C59.6302 0.467101 58.4755 0.442718 58.0015 0.479618ZM106.841 0.467635C106.463 0.505368 105.841 0.608638 105.525 0.686126C104.577 0.917909 103.869 1.29379 103.284 1.87504C102.608 2.5474 102.275 3.26695 102.094 4.44828C102.043 4.78298 102.02 12.5591 102.068 13.1754C102.112 13.7373 102.166 14.039 102.291 14.4392C102.917 16.4428 105.012 17.535 108.06 17.4477C111.15 17.3592 113.025 16.0887 113.398 13.8296C113.498 13.2267 113.516 12.6726 113.516 10.3079V8.00159H110.647H107.777V9.19097V10.3804H108.61H109.443L109.442 11.7853C109.441 13.3196 109.43 13.4585 109.274 13.7444C109.006 14.2366 108.521 14.5064 107.852 14.535C106.958 14.5733 106.322 14.1709 106.12 13.4399C106.071 13.2623 106.068 12.972 106.068 9.02743C106.068 5.04946 106.071 4.79175 106.122 4.57454C106.309 3.77571 106.871 3.35393 107.748 3.35393C108.282 3.35393 108.648 3.4869 108.956 3.7929C109.315 4.15147 109.382 4.38551 109.404 5.36263L109.42 6.06883H111.453H113.486V5.55278C113.486 3.7656 113.155 2.73107 112.313 1.89089C111.581 1.16117 110.668 0.756182 109.249 0.532487C108.93 0.482176 108.697 0.470193 107.911 0.463651C107.388 0.45931 106.906 0.461093 106.841 0.467635ZM68.3617 0.905182C68.3532 0.927394 68.3511 3.76751 68.3572 7.21659C68.367 12.8044 68.3734 13.5221 68.4162 13.8039C68.5821 14.8958 68.9044 15.5834 69.5503 16.2237C70.4133 17.0792 71.6048 17.5038 73.4409 17.6104C74.6791 17.6822 75.9431 17.5371 76.8737 17.2162C78.5902 16.6243 79.5261 15.3904 79.6769 13.5205C79.697 13.2717 79.7078 10.9823 79.7078 7.00116V0.865248H77.6715H75.6352L75.6273 7.17645L75.6193 13.4876L75.5528 13.6831C75.3841 14.179 75.0534 14.4976 74.5476 14.6513C74.2791 14.7329 73.7211 14.7245 73.4647 14.6351C73.0082 14.4759 72.7233 14.2004 72.5314 13.7328L72.4674 13.5768L72.4525 7.22848L72.4377 0.880115L70.4074 0.872473C68.72 0.86611 68.3746 0.871642 68.3617 0.905182ZM17.6985 0.976753C17.647 1.22346 14.7374 17.056 14.7374 17.0897C14.7374 17.1234 15.0986 17.1301 16.9067 17.1301H19.076L19.0928 17.0335C19.1274 16.8345 21.2791 2.44791 21.2791 2.41553C21.2791 2.39691 21.3058 2.38172 21.3385 2.38172C21.3712 2.38172 21.398 2.39849 21.398 2.41898C21.398 2.45531 23.4917 16.8418 23.5249 17.0335L23.5416 17.1301H25.7114H27.8813L27.8658 17.0632C27.8462 16.9784 24.9067 0.934055 24.9067 0.911605C24.9067 0.902477 23.2887 0.894983 21.3111 0.894983H17.7156L17.6985 0.976753ZM31.4669 1.11044C31.4525 1.30086 31.1179 16.6311 31.1203 16.9889L31.1213 17.1301H33.1432H35.1652L35.1654 15.8887C35.166 12.8066 35.257 2.54559 35.284 2.51859C35.2999 2.50274 35.3209 2.49783 35.3308 2.50771C35.3407 2.51758 35.9498 5.78156 36.6844 9.76099C37.419 13.7405 38.0269 17.0265 38.0353 17.0632L38.0506 17.1301H40.0976H42.1446L42.1754 16.974C42.1924 16.8882 42.7984 13.6066 43.5221 9.6816C44.2458 5.75661 44.8493 2.53256 44.8632 2.51701C44.8791 2.49917 44.898 2.49917 44.9143 2.51701C44.9336 2.53815 45.0429 15.2071 45.0379 16.8551L45.0371 17.1301H47.0604H49.0836L49.0658 16.6024C49.056 16.3121 48.9823 12.9435 48.9021 9.11664C48.8219 5.28978 48.7476 1.87439 48.737 1.52685L48.7177 0.894983L45.4278 0.895012L42.138 0.895072L41.1423 7.09833C40.2035 12.9473 40.1256 13.3945 40.0589 13.3204C40.0534 13.3142 39.6015 10.5194 39.0547 7.10954L38.0605 0.90985L34.7719 0.902297L31.4832 0.894716L31.4669 1.11044ZM84.2275 8.93823V16.9815H86.2049H88.1822L88.182 16.6172C88.1818 16.4169 88.1351 13.5099 88.0781 10.1574C88.0211 6.80476 87.9744 3.9915 87.9743 3.90563C87.974 3.66037 88.0445 3.69971 88.1343 3.99483C88.1753 4.12977 88.5847 5.48454 89.0442 7.00547C89.5036 8.5264 90.3697 11.3933 90.9687 13.3763L92.0579 16.9818L94.9297 16.9742L97.8014 16.9666L97.8089 8.9308L97.8164 0.894983H95.8085H93.8006L93.8177 1.49711C93.827 1.8283 93.8736 4.46761 93.9211 7.36229C93.9687 10.257 94.0141 12.8562 94.0221 13.1383C94.0356 13.6111 94.0327 13.6512 93.9851 13.6512C93.942 13.6512 93.6298 12.6069 92.0939 7.32512C91.0822 3.84577 90.2483 0.975623 90.2407 0.947019C90.2278 0.897897 90.0591 0.894983 87.2272 0.894983H84.2275V8.93823Z" fill="#2D2D2D"/>
</svg>
